<?xml version="1.0" encoding="utf-8"?>
<!DOCTYPE svg PUBLIC "-//W3C//DTD SVG 1.1//EN" "http://www.w3.org/Graphics/SVG/1.1/DTD/svg11.dtd">
<svg version="1.1" id="Layer_1" xmlns="http://www.w3.org/2000/svg" xmlns:xlink="http://www.w3.org/1999/xlink" x="0px" y="0px"
	 width="662px" height="783.89px" viewBox="0 0 662 783.89" enable-background="new 0 0 662 783.89" xml:space="preserve">
<line fill="none" stroke="#26264C" stroke-width="0.709" stroke-linecap="round" stroke-linejoin="round" stroke-miterlimit="10" x1="141.494" y1="647.91" x2="112.482" y2="712.589"/>
<line fill="none" stroke="#26264C" stroke-width="0.709" stroke-linecap="round" stroke-linejoin="round" stroke-miterlimit="10" x1="510.083" y1="647.91" x2="539.096" y2="712.589"/>
<g>
	<defs>
		<rect id="SVGID_1_" width="662" height="783.89"/>
	</defs>
	<clipPath id="SVGID_2_">
		<use xlink:href="#SVGID_1_"  overflow="visible"/>
	</clipPath>
	
		<path clip-path="url(#SVGID_2_)" fill="none" stroke="#26264C" stroke-width="0.709" stroke-linecap="round" stroke-linejoin="round" stroke-miterlimit="10" d="
		M478.022,737.404c6.683,16.934,25.828,25.242,42.762,18.561c16.934-6.684,25.243-25.828,18.561-42.762
		c-0.081-0.205-0.164-0.41-0.249-0.613"/>
	
		<path clip-path="url(#SVGID_2_)" fill="none" stroke="#26264C" stroke-width="0.709" stroke-linecap="round" stroke-linejoin="round" stroke-miterlimit="10" d="
		M609.542,423.761c12.958-13.371,7.036-35.391-7.797-45.917c-14.833-10.527-31.245-6.08-45.918,7.796"/>
	
		<path clip-path="url(#SVGID_2_)" fill="none" stroke="#26264C" stroke-width="0.709" stroke-linecap="round" stroke-linejoin="round" stroke-miterlimit="10" d="
		M401.885,467.388c-0.23,7.824,5.925,14.354,13.749,14.586c2.129,0.062,4.244-0.356,6.188-1.223"/>
	
		<path clip-path="url(#SVGID_2_)" fill="none" stroke="#26264C" stroke-width="0.709" stroke-linecap="round" stroke-linejoin="round" stroke-miterlimit="10" d="
		M95.75,385.64c-14-13.875-31.085-18.323-45.918-7.796c-14.833,10.526-22.582,32.796-7.797,45.917"/>
	
		<path clip-path="url(#SVGID_2_)" fill="none" stroke="#26264C" stroke-width="0.709" stroke-linecap="round" stroke-linejoin="round" stroke-miterlimit="10" d="
		M229.755,480.751c7.149,3.188,15.529-0.025,18.716-7.176c0.867-1.943,1.284-4.059,1.221-6.188"/>
	
		<circle clip-path="url(#SVGID_2_)" fill="none" stroke="#26264C" stroke-width="0.709" stroke-linecap="round" stroke-linejoin="round" stroke-miterlimit="10" cx="325.233" cy="467.388" r="21.056"/>
	
		<path clip-path="url(#SVGID_2_)" fill="none" stroke="#26264C" stroke-width="0.709" stroke-linecap="round" stroke-linejoin="round" stroke-miterlimit="10" d="
		M318.951,18.652c3.166,3.469,8.545,3.715,12.014,0.549c0.191-0.175,0.374-0.358,0.549-0.549"/>
	
		<path clip-path="url(#SVGID_2_)" fill="none" stroke="#26264C" stroke-width="0.709" stroke-linecap="round" stroke-linejoin="round" stroke-miterlimit="10" d="
		M112.481,712.589c-7.022,16.795,0.902,36.104,17.698,43.125c16.796,7.021,36.104-0.902,43.126-17.697
		c0.085-0.203,0.168-0.408,0.249-0.613"/>
	
		<path clip-path="url(#SVGID_2_)" fill="none" stroke="#26264C" stroke-width="0.709" stroke-linecap="round" stroke-linejoin="round" stroke-miterlimit="10" d="
		M401.885,467.388c0.197-6.697,1.21-13.041,3.759-17.736c2.548-4.695,6.632-7.743,12.971-7.85"/>
	
		<path clip-path="url(#SVGID_2_)" fill="none" stroke="#26264C" stroke-width="0.709" stroke-linecap="round" stroke-linejoin="round" stroke-miterlimit="10" d="
		M42.035,423.761c96.883,84.609,130.036,159.326,99.458,224.148"/>
	
		<path clip-path="url(#SVGID_2_)" fill="none" stroke="#26264C" stroke-width="0.709" stroke-linecap="round" stroke-linejoin="round" stroke-miterlimit="10" d="
		M355.189,10.982c52.229,0.314,134.809,2.343,179.467,15.832c9.837,2.971,17.834,6.498,25.498,10.863
		c26.666,15.186,49.301,40.509,63.816,69.173c15.391,30.392,21.656,64.539,21.063,96.802
		c-2.128,115.872-111.855,225.273-204.062,236.721c-7.631,0.947-15.15,1.309-22.358,1.43"/>
	
		<path clip-path="url(#SVGID_2_)" fill="none" stroke="#26264C" stroke-width="0.709" stroke-linecap="round" stroke-linejoin="round" stroke-miterlimit="10" d="
		M173.555,737.404c36.787-93.215,107.516-122.941,152.233-122.941"/>
	
		<path clip-path="url(#SVGID_2_)" fill="none" stroke="#26264C" stroke-width="0.709" stroke-linecap="round" stroke-linejoin="round" stroke-miterlimit="10" d="
		M478.022,737.404c-36.787-93.215-107.516-122.941-152.234-122.941"/>
	
		<path clip-path="url(#SVGID_2_)" fill="none" stroke="#26264C" stroke-width="0.709" stroke-linecap="round" stroke-linejoin="round" stroke-miterlimit="10" d="
		M609.542,423.761c-96.883,84.609-130.036,159.326-99.459,224.148"/>
	
		<path clip-path="url(#SVGID_2_)" fill="none" stroke="#26264C" stroke-width="0.709" stroke-linecap="round" stroke-linejoin="round" stroke-miterlimit="10" d="
		M421.822,480.751c49.265-21.959,93.933-53.664,134.005-95.111"/>
	
		<path clip-path="url(#SVGID_2_)" fill="none" stroke="#26264C" stroke-width="0.709" stroke-linecap="round" stroke-linejoin="round" stroke-miterlimit="10" d="
		M229.755,480.751c-49.265-21.959-93.933-53.664-134.005-95.111"/>
	
		<path clip-path="url(#SVGID_2_)" fill="none" stroke="#26264C" stroke-width="0.709" stroke-linecap="round" stroke-linejoin="round" stroke-miterlimit="10" d="
		M249.692,467.388c-0.197-6.697-1.21-13.041-3.759-17.736c-2.548-4.695-6.631-7.743-12.97-7.85"/>
	
		<path clip-path="url(#SVGID_2_)" fill="none" stroke="#26264C" stroke-width="0.709" stroke-linecap="round" stroke-linejoin="round" stroke-miterlimit="10" d="
		M295.275,10.993c6.683,0.046,11.65,0.918,15.422,2.3c3.773,1.383,6.35,3.274,8.254,5.359"/>
	
		<path clip-path="url(#SVGID_2_)" fill="none" stroke="#26264C" stroke-width="0.709" stroke-linecap="round" stroke-linejoin="round" stroke-miterlimit="10" d="
		M355.189,10.993c-6.683,0.046-11.65,0.918-15.423,2.3c-3.772,1.383-6.349,3.274-8.253,5.359"/>
	
		<path clip-path="url(#SVGID_2_)" fill="none" stroke="#26264C" stroke-width="0.709" stroke-linecap="round" stroke-linejoin="round" stroke-miterlimit="10" d="
		M295.275,10.993c-52.277,0.342-134.051,2.444-178.408,15.849c-9.837,2.973-17.833,6.501-25.496,10.866
		c-26.663,15.19-49.294,40.515-63.805,69.181C12.179,137.281,5.92,171.429,6.518,203.69
		c2.256,121.975,117.412,225.938,204.089,236.686c7.63,0.945,15.15,1.306,22.357,1.426"/>
</g>
</svg>
